<?xml version="1.0" standalone="no"?>
<svg xmlns="http://www.w3.org/2000/svg" viewBox="0 0 60 70" width="60" height="70"><g fill="#f1333f" color="#f1333f" transform="translate(7.749 0) scale(0.44) "><svg width="100.0" height="100.0" x="0.0" y="0.0" viewBox="0 0 100 100"><g><circle cx="61.015" cy="58.584" r="1.264"></circle><path d="M95.132,49.44H38.538c-1.433,0-2.593,1.16-2.593,2.592v36.289c0,1.433,1.16,2.593,2.593,2.593h56.594   c1.432,0,2.592-1.16,2.592-2.593V52.032C97.724,50.601,96.563,49.44,95.132,49.44z M68.11,73.367L56.299,61.555l1.349-6.339   l6.339-1.349l11.812,11.812L68.11,73.367z"></path><path d="M56.826,47.582v-2.607c0-1.432,1.16-2.592,2.592-2.592h14.833c1.431,0,2.592,1.16,2.592,2.592v2.607h4.752v-2.607   c0-4.049-3.295-7.345-7.344-7.345H59.418c-4.049,0-7.345,3.296-7.345,7.345v2.607H56.826z"></path><path d="M35.089,40.056l3.856,7.526h9.779l-3.558-17.599L59.546,15.6c1.49-1.491,1.49-3.907,0-5.395   c-1.489-1.489-3.906-1.495-5.398,0L39.768,24.586L5.275,17.609l-2.999,2.999l27.417,14.05l-14.039,14.04l-7.41-1.497l-2.999,2.998   l9.46,4.849l4.846,9.458l3-3l-1.5-7.413L35.089,40.056z"></path></g></svg></g><path fill="#353434" fill-rule="nonzero" d="M3.34 0L3.34 17.09L0 17.09L0 0L3.34 0ZM17.52 14.11L17.52 17.09L8.83 17.09Q7.51 17.09 6.82 16.46Q6.12 15.84 6.12 14.83Q6.12 13.82 6.86 12.72L6.86 12.72L13.58 2.98L6.60 2.98L6.60 0L17.52 0L17.52 2.64L9.72 14.11L17.52 14.11ZM31.73 0L31.73 2.98L25.70 2.98Q24.65 2.98 24.23 3.38Q23.81 3.79 23.81 4.80L23.81 4.80L23.81 7.18L30.07 7.18L29.83 10.15L23.81 10.15L23.81 17.09L20.47 17.09L20.47 3.48Q20.47 1.58 21.30 0.79Q22.13 0 24.14 0L24.14 0L31.73 0ZM45.17 14.11L45.17 17.09L40.08 17.09Q37.20 17.09 35.92 15.97Q34.63 14.86 34.63 12.34L34.63 12.34L34.63 0L37.97 0L37.97 12.34Q37.97 13.34 38.42 13.73Q38.88 14.11 40.08 14.11L40.08 14.11L45.17 14.11ZM55.87 0L59.50 0L54.36 10.08L54.36 17.09L51.05 17.09L51.05 10.08L45.91 0L49.54 0L52.73 6.89L55.87 0Z" transform="translate(0, 52)"></path></svg>